<?xml version="1.0" encoding="UTF-8" standalone="no"?><!DOCTYPE svg PUBLIC "-//W3C//DTD SVG 1.1//EN" "http://www.w3.org/Graphics/SVG/1.1/DTD/svg11.dtd"><svg width="100%" height="100%" viewBox="0 0 1235 380" version="1.1" xmlns="http://www.w3.org/2000/svg" xmlns:xlink="http://www.w3.org/1999/xlink" xml:space="preserve" xmlns:serif="http://www.serif.com/" style="fill-rule:evenodd;clip-rule:evenodd;stroke-linejoin:round;stroke-miterlimit:10;"><g><text x="93.446px" y="288.575px" style="font-family:'Tahoma', sans-serif;font-size:24px;fill:#140000;">W<tspan x="114.2px 126.832px " y="288.575px 288.575px ">eb</tspan> page</text><rect x="18.008" y="93.984" width="705.008" height="266.016" style="fill-opacity:0;"/><rect x="18.008" y="93.984" width="705.008" height="266.016" style="fill:none;stroke:#434343;stroke-width:4px;"/><path d="M46.677,143.03c0,-7.071 5.733,-12.804 12.805,-12.804l194.044,0c3.396,0 6.653,1.349 9.054,3.75c2.402,2.401 3.751,5.658 3.751,9.054l0,108.344c0,7.072 -5.733,12.804 -12.805,12.804l-194.044,0c-7.072,0 -12.805,-5.732 -12.805,-12.804l0,-108.344Z" style="fill:#fff;"/><path d="M46.677,143.03c0,-7.071 5.733,-12.804 12.805,-12.804l194.044,0c3.396,0 6.653,1.349 9.054,3.75c2.402,2.401 3.751,5.658 3.751,9.054l0,108.344c0,7.072 -5.733,12.804 -12.805,12.804l-194.044,0c-7.072,0 -12.805,-5.732 -12.805,-12.804l0,-108.344Z" style="fill:none;stroke:#000;stroke-width:1px;"/><path d="M46.677,142.045c0,-6.528 5.292,-11.819 11.819,-11.819l196.016,0c3.134,0 6.141,1.245 8.357,3.461c2.217,2.217 3.462,5.223 3.462,8.358l0,1.968c0,6.528 -5.292,11.819 -11.819,11.819l-196.016,0c-6.527,0 -11.819,-5.291 -11.819,-11.819l0,-1.968Z" style="fill:#434343;"/><rect x="46.661" y="142.045" width="219.654" height="13.795" style="fill:#434343;"/><path d="M54.556,142.546c0,-2.453 1.989,-4.441 4.441,-4.441c1.178,0 2.308,0.468 3.141,1.301c0.832,0.833 1.3,1.962 1.3,3.14c0,2.453 -1.988,4.441 -4.441,4.441c-2.452,0 -4.441,-1.988 -4.441,-4.441Z" style="fill:#fff;"/><path d="M70.556,142.546c0,-2.453 1.989,-4.441 4.441,-4.441c1.178,0 2.308,0.468 3.141,1.301c0.832,0.833 1.3,1.962 1.3,3.14c0,2.453 -1.988,4.441 -4.441,4.441c-2.452,0 -4.441,-1.988 -4.441,-4.441Z" style="fill:#fff;"/><path d="M86.556,142.546c0,-2.453 1.989,-4.441 4.441,-4.441c1.178,0 2.308,0.468 3.141,1.301c0.832,0.833 1.3,1.962 1.3,3.14c0,2.453 -1.988,4.441 -4.441,4.441c-2.452,0 -4.441,-1.988 -4.441,-4.441Z" style="fill:#fff;"/><rect x="46.654" y="154.85" width="219.654" height="109.323" style="fill-opacity:0;"/><path d="M135.199,227.139l-24.891,-14.968c-0.896,-0.521 -1.344,-1.271 -1.344,-2.25c0,-0.813 0.448,-1.558 1.344,-2.235l24.891,-14.984c0.812,-0.375 1.635,-0.38 2.469,-0.016c0.833,0.354 1.25,1.021 1.25,2c0,0.99 -0.407,1.74 -1.219,2.25l-23.938,14.266l0,-2.75l23.938,14.344c0.812,0.552 1.219,1.276 1.219,2.171c0,0.678 -0.204,1.23 -0.61,1.657c-0.406,0.427 -0.901,0.708 -1.484,0.843c-0.573,0.125 -1.115,0.016 -1.625,-0.328Zm11.195,10.297c-0.896,0 -1.588,-0.354 -2.078,-1.062c-0.489,-0.698 -0.542,-1.516 -0.156,-2.453l20.094,-50.11c0.177,-0.469 0.474,-0.828 0.89,-1.078c0.427,-0.26 0.901,-0.391 1.422,-0.391c0.938,0 1.62,0.375 2.047,1.125c0.427,0.74 0.49,1.537 0.187,2.391l-20.093,50.172c-0.219,0.521 -0.542,0.885 -0.969,1.094c-0.427,0.208 -0.875,0.312 -1.344,0.312Zm31.297,-10.297c-0.51,0.344 -1.052,0.453 -1.625,0.328c-0.572,-0.135 -1.062,-0.416 -1.468,-0.843c-0.407,-0.427 -0.61,-0.979 -0.61,-1.657c0,-0.895 0.407,-1.619 1.219,-2.171l24,-14.344l0,2.75l-24,-14.266c-0.812,-0.51 -1.219,-1.26 -1.219,-2.25c0,-0.979 0.412,-1.646 1.235,-2c0.833,-0.364 1.656,-0.359 2.468,0.016l24.907,14.984c0.896,0.677 1.343,1.422 1.343,2.235c0,0.979 -0.447,1.729 -1.343,2.25l-24.907,14.968Z" style="fill:#434343;fill-rule:nonzero;"/><path d="M535.962,156.365c0,-11.333 9.187,-20.52 20.52,-20.52l82.078,0c5.442,0 10.662,2.162 14.51,6.01c3.848,3.849 6.01,9.068 6.01,14.51l0,82.078c0,11.333 -9.187,20.52 -20.52,20.52l-82.078,0c-11.333,0 -20.52,-9.187 -20.52,-20.52l0,-82.078Z" style="fill:#434343;"/><path d="M535.962,156.365c0,-11.333 9.187,-20.52 20.52,-20.52l82.078,0c5.442,0 10.662,2.162 14.51,6.01c3.848,3.849 6.01,9.068 6.01,14.51l0,82.078c0,11.333 -9.187,20.52 -20.52,20.52l-82.078,0c-11.333,0 -20.52,-9.187 -20.52,-20.52l0,-82.078Z" style="fill:none;stroke:#434343;stroke-width:1px;"/><path d="M562.828,174.276c0,-6.387 5.178,-11.565 11.565,-11.565l46.256,0c3.067,0 6.009,1.219 8.178,3.387c2.168,2.169 3.387,5.111 3.387,8.178l0,46.257c0,6.386 -5.178,11.564 -11.565,11.564l-46.256,0c-6.387,0 -11.565,-5.178 -11.565,-11.564l0,-46.257Z" style="fill:#434343;"/><path d="M562.828,174.276c0,-6.387 5.178,-11.565 11.565,-11.565l46.256,0c3.067,0 6.009,1.219 8.178,3.387c2.168,2.169 3.387,5.111 3.387,8.178l0,46.257c0,6.386 -5.178,11.564 -11.565,11.564l-46.256,0c-6.387,0 -11.565,-5.178 -11.565,-11.564l0,-46.257Z" style="fill:none;stroke:#fff;stroke-width:8px;"/><path d="M554.802,124.509c0,-1.696 1.375,-3.071 3.071,-3.071l0.756,0c0.814,0 1.595,0.324 2.171,0.9c0.576,0.576 0.899,1.357 0.899,2.171l0,21.449c0,1.696 -1.374,3.071 -3.07,3.071l-0.756,0c-1.696,0 -3.071,-1.375 -3.071,-3.071l0,-21.449Z" style="fill:#434343;"/><path d="M571.048,124.509c0,-1.696 1.375,-3.071 3.071,-3.071l0.756,0c0.814,0 1.595,0.324 2.171,0.9c0.576,0.576 0.9,1.357 0.9,2.171l0,21.449c0,1.696 -1.375,3.071 -3.071,3.071l-0.756,0c-1.696,0 -3.071,-1.375 -3.071,-3.071l0,-21.449Z" style="fill:#434343;"/><path d="M587.048,124.509c0,-1.696 1.375,-3.071 3.071,-3.071l0.756,0c0.814,0 1.595,0.324 2.171,0.9c0.576,0.576 0.9,1.357 0.9,2.171l0,21.449c0,1.696 -1.375,3.071 -3.071,3.071l-0.756,0c-1.696,0 -3.071,-1.375 -3.071,-3.071l0,-21.449Z" style="fill:#434343;"/><path d="M603.048,124.509c0,-1.696 1.375,-3.071 3.071,-3.071l0.756,0c0.814,0 1.595,0.324 2.171,0.9c0.576,0.576 0.9,1.357 0.9,2.171l0,21.449c0,1.696 -1.375,3.071 -3.071,3.071l-0.756,0c-1.696,0 -3.071,-1.375 -3.071,-3.071l0,-21.449Z" style="fill:#434343;"/><path d="M619.048,124.509c0,-1.696 1.375,-3.071 3.071,-3.071l0.756,0c0.814,0 1.595,0.324 2.171,0.9c0.576,0.576 0.9,1.357 0.9,2.171l0,21.449c0,1.696 -1.375,3.071 -3.071,3.071l-0.756,0c-1.696,0 -3.071,-1.375 -3.071,-3.071l0,-21.449Z" style="fill:#434343;"/><path d="M635.048,124.509c0,-1.696 1.375,-3.071 3.071,-3.071l0.756,0c0.814,0 1.595,0.324 2.171,0.9c0.576,0.576 0.9,1.357 0.9,2.171l0,21.449c0,1.696 -1.375,3.071 -3.071,3.071l-0.756,0c-1.696,0 -3.071,-1.375 -3.071,-3.071l0,-21.449Z" style="fill:#434343;"/><path d="M554.802,248.446c0,-1.696 1.375,-3.071 3.071,-3.071l0.756,0c0.814,0 1.595,0.324 2.171,0.9c0.576,0.576 0.899,1.357 0.899,2.171l0,21.449c0,1.696 -1.374,3.071 -3.07,3.071l-0.756,0c-1.696,0 -3.071,-1.375 -3.071,-3.071l0,-21.449Z" style="fill:#434343;"/><path d="M571.048,248.446c0,-1.696 1.375,-3.071 3.071,-3.071l0.756,0c0.814,0 1.595,0.324 2.171,0.9c0.576,0.576 0.9,1.357 0.9,2.171l0,21.449c0,1.696 -1.375,3.071 -3.071,3.071l-0.756,0c-1.696,0 -3.071,-1.375 -3.071,-3.071l0,-21.449Z" style="fill:#434343;"/><path d="M587.048,248.446c0,-1.696 1.375,-3.071 3.071,-3.071l0.756,0c0.814,0 1.595,0.324 2.171,0.9c0.576,0.576 0.9,1.357 0.9,2.171l0,21.449c0,1.696 -1.375,3.071 -3.071,3.071l-0.756,0c-1.696,0 -3.071,-1.375 -3.071,-3.071l0,-21.449Z" style="fill:#434343;"/><path d="M603.048,248.446c0,-1.696 1.375,-3.071 3.071,-3.071l0.756,0c0.814,0 1.595,0.324 2.171,0.9c0.576,0.576 0.9,1.357 0.9,2.171l0,21.449c0,1.696 -1.375,3.071 -3.071,3.071l-0.756,0c-1.696,0 -3.071,-1.375 -3.071,-3.071l0,-21.449Z" style="fill:#434343;"/><path d="M619.048,248.446c0,-1.696 1.375,-3.071 3.071,-3.071l0.756,0c0.814,0 1.595,0.324 2.171,0.9c0.576,0.576 0.9,1.357 0.9,2.171l0,21.449c0,1.696 -1.375,3.071 -3.071,3.071l-0.756,0c-1.696,0 -3.071,-1.375 -3.071,-3.071l0,-21.449Z" style="fill:#434343;"/><path d="M635.048,248.446c0,-1.696 1.375,-3.071 3.071,-3.071l0.756,0c0.814,0 1.595,0.324 2.171,0.9c0.576,0.576 0.9,1.357 0.9,2.171l0,21.449c0,1.696 -1.375,3.071 -3.071,3.071l-0.756,0c-1.696,0 -3.071,-1.375 -3.071,-3.071l0,-21.449Z" style="fill:#434343;"/><path d="M648.571,238.743c-1.696,0 -3.07,-1.375 -3.07,-3.071l0,-0.756c0,-0.815 0.323,-1.596 0.899,-2.172c0.576,-0.576 1.357,-0.899 2.171,-0.899l21.449,0c1.696,0 3.071,1.375 3.071,3.071l0,0.756c0,1.696 -1.375,3.071 -3.071,3.071l-21.449,0Z" style="fill:#434343;"/><path d="M648.571,222.496c-1.696,0 -3.07,-1.374 -3.07,-3.07l0,-0.756c0,-0.815 0.323,-1.596 0.899,-2.172c0.576,-0.576 1.357,-0.899 2.171,-0.899l21.449,0c1.696,0 3.071,1.375 3.071,3.071l0,0.756c0,1.696 -1.375,3.07 -3.071,3.07l-21.449,0Z" style="fill:#434343;"/><path d="M648.571,206.496c-1.696,0 -3.07,-1.374 -3.07,-3.07l0,-0.756c0,-0.815 0.323,-1.596 0.899,-2.172c0.576,-0.576 1.357,-0.899 2.171,-0.899l21.449,0c1.696,0 3.071,1.375 3.071,3.071l0,0.756c0,1.696 -1.375,3.07 -3.071,3.07l-21.449,0Z" style="fill:#434343;"/><path d="M648.571,190.496c-1.696,0 -3.07,-1.374 -3.07,-3.07l0,-0.756c0,-0.815 0.323,-1.596 0.899,-2.172c0.576,-0.576 1.357,-0.899 2.171,-0.899l21.449,0c1.696,0 3.071,1.375 3.071,3.071l0,0.756c0,1.696 -1.375,3.07 -3.071,3.07l-21.449,0Z" style="fill:#434343;"/><path d="M648.571,174.496c-1.696,0 -3.07,-1.374 -3.07,-3.07l0,-0.756c0,-0.815 0.323,-1.596 0.899,-2.172c0.576,-0.576 1.357,-0.899 2.171,-0.899l21.449,0c1.696,0 3.071,1.375 3.071,3.071l0,0.756c0,1.696 -1.375,3.07 -3.071,3.07l-21.449,0Z" style="fill:#434343;"/><path d="M648.571,158.496c-1.696,0 -3.07,-1.374 -3.07,-3.07l0,-0.756c0,-0.815 0.323,-1.596 0.899,-2.172c0.576,-0.576 1.357,-0.899 2.171,-0.899l21.449,0c1.696,0 3.071,1.375 3.071,3.071l0,0.756c0,1.696 -1.375,3.07 -3.071,3.07l-21.449,0Z" style="fill:#434343;"/><path d="M524.634,238.743c-1.696,0 -3.071,-1.375 -3.071,-3.071l0,-0.756c0,-0.815 0.324,-1.596 0.9,-2.172c0.576,-0.576 1.357,-0.899 2.171,-0.899l21.449,0c1.696,0 3.071,1.375 3.071,3.071l0,0.756c0,1.696 -1.375,3.071 -3.071,3.071l-21.449,0Z" style="fill:#434343;"/><path d="M524.634,222.496c-1.696,0 -3.071,-1.374 -3.071,-3.07l0,-0.756c0,-0.815 0.324,-1.596 0.9,-2.172c0.576,-0.576 1.357,-0.899 2.171,-0.899l21.449,0c1.696,0 3.071,1.375 3.071,3.071l0,0.756c0,1.696 -1.375,3.07 -3.071,3.07l-21.449,0Z" style="fill:#434343;"/><path d="M524.634,206.496c-1.696,0 -3.071,-1.374 -3.071,-3.07l0,-0.756c0,-0.815 0.324,-1.596 0.9,-2.172c0.576,-0.576 1.357,-0.899 2.171,-0.899l21.449,0c1.696,0 3.071,1.375 3.071,3.071l0,0.756c0,1.696 -1.375,3.07 -3.071,3.07l-21.449,0Z" style="fill:#434343;"/><path d="M524.634,190.496c-1.696,0 -3.071,-1.374 -3.071,-3.07l0,-0.756c0,-0.815 0.324,-1.596 0.9,-2.172c0.576,-0.576 1.357,-0.899 2.171,-0.899l21.449,0c1.696,0 3.071,1.375 3.071,3.071l0,0.756c0,1.696 -1.375,3.07 -3.071,3.07l-21.449,0Z" style="fill:#434343;"/><path d="M524.634,174.496c-1.696,0 -3.071,-1.374 -3.071,-3.07l0,-0.756c0,-0.815 0.324,-1.596 0.9,-2.172c0.576,-0.576 1.357,-0.899 2.171,-0.899l21.449,0c1.696,0 3.071,1.375 3.071,3.071l0,0.756c0,1.696 -1.375,3.07 -3.071,3.07l-21.449,0Z" style="fill:#434343;"/><path d="M524.634,158.496c-1.696,0 -3.071,-1.374 -3.071,-3.07l0,-0.756c0,-0.815 0.324,-1.596 0.9,-2.172c0.576,-0.576 1.357,-0.899 2.171,-0.899l21.449,0c1.696,0 3.071,1.375 3.071,3.071l0,0.756c0,1.696 -1.375,3.07 -3.071,3.07l-21.449,0Z" style="fill:#434343;"/><path d="M963.011,197.202c0,-43.356 35.147,-78.504 78.503,-78.504c20.821,0 40.789,8.271 55.511,22.993c14.722,14.723 22.993,34.691 22.993,55.511c0,43.357 -35.147,78.504 -78.504,78.504c-43.356,0 -78.504,-35.147 -78.504,-78.504l0.001,0Z" style="fill:#fff;"/><path d="M963.011,197.202c0,-43.356 35.147,-78.504 78.503,-78.504c20.821,0 40.789,8.271 55.511,22.993c14.722,14.723 22.993,34.691 22.993,55.511c0,43.357 -35.147,78.504 -78.504,78.504c-43.356,0 -78.504,-35.147 -78.504,-78.504l0.001,0Z" style="fill:none;stroke:#434343;stroke-width:8px;"/><path d="M1041.51,118.698c0,12.752 -5.804,13.54 -11.611,25.505c-5.807,11.964 -11.616,35.107 -11.612,58.999c0.005,23.893 5.823,48.535 11.643,59c5.821,10.465 11.643,6.752 11.643,13.504" style="fill-opacity:0;"/><path d="M1041.51,118.698c0,12.752 -5.804,13.54 -11.611,25.505c-5.807,11.964 -11.616,35.107 -11.612,58.999c0.005,23.893 5.823,48.535 11.643,59c5.821,10.465 11.643,6.752 11.643,13.504" style="fill:none;stroke:#434343;stroke-width:8px;"/><path d="M986.004,141.691c0,13.32 29.501,21.164 53.644,26.64c24.142,5.475 42.927,8.583 53.643,14.428c10.717,5.845 13.365,14.429 26.729,14.429" style="fill-opacity:0;"/><path d="M986.004,141.691c0,13.32 29.501,21.164 53.644,26.64c24.142,5.475 42.927,8.583 53.643,14.428c10.717,5.845 13.365,14.429 26.729,14.429" style="fill:none;stroke:#434343;stroke-width:8px;"/><path d="M1097.03,141.691c0,24.32 -18.105,37.996 -30.867,48.64c-12.761,10.644 -20.179,18.257 -30.867,31.192c-10.687,12.935 -24.645,31.192 -49.29,31.192" style="fill-opacity:0;"/><path d="M1097.03,141.691c0,24.32 -18.105,37.996 -30.867,48.64c-12.761,10.644 -20.179,18.257 -30.867,31.192c-10.687,12.935 -24.645,31.192 -49.29,31.192" style="fill:none;stroke:#434343;stroke-width:8px;"/><path d="M1012.18,163.339c0,-6.428 5.211,-11.638 11.638,-11.638c3.087,0 6.047,1.226 8.229,3.408c2.183,2.183 3.409,5.143 3.409,8.23c0,6.427 -5.21,11.637 -11.638,11.637c-6.427,0 -11.638,-5.21 -11.638,-11.637l0,0Z" style="fill:#434343;"/><path d="M1068.75,177.339c0,-6.428 5.21,-11.638 11.637,-11.638c3.087,0 6.047,1.226 8.23,3.408c2.182,2.183 3.408,5.143 3.408,8.23c0,6.427 -5.21,11.637 -11.638,11.637c-6.427,0 -11.637,-5.21 -11.637,-11.637l0,0Z" style="fill:#434343;"/><path d="M1006.18,236.339c0,-6.428 5.211,-11.638 11.638,-11.638c3.087,0 6.047,1.226 8.229,3.408c2.183,2.183 3.409,5.143 3.409,8.23c0,6.427 -5.21,11.637 -11.638,11.637c-6.427,0 -11.638,-5.21 -11.638,-11.637l0,0Z" style="fill:#434343;"/><text x="40.485px" y="78.921px" style="font-family:'Tahoma', sans-serif;font-size:36px;fill:#140000;">B<tspan x="61.878px 74.675px 94.222px " y="78.921px 78.921px 78.921px ">row</tspan>ser</text><path d="M296.008,215.118l38,-25.228l0,18l103.527,0l0,-18l38,25.228l-38,25.228l0,-18l-103.527,0l0,18l-38,-25.228Z" style="fill:#434343;"/><path d="M740.287,215.118l38,-25.228l0,18l103.528,0l0,-18l38,25.228l-38,25.228l0,-18l-103.528,0l0,18l-38,-25.228Z" style="fill:#434343;"/><g transform="matrix(1,0,0,1,197.303,219.54)"><text x="361.502px" y="77.957px" style="font-family:'Tahoma', sans-serif;font-size:24px;fill:#140000;">Service</text><text x="361.696px" y="113.957px" style="font-family:'Tahoma', sans-serif;font-size:24px;fill:#140000;">W<tspan x="382.45px 395.481px 404.129px 415.871px 428.504px " y="113.957px 113.957px 113.957px 113.957px 113.957px ">orker</tspan></text></g><text x="999.595px" y="314.826px" style="font-family:'Tahoma', sans-serif;font-size:24px;fill:#140000;">Network</text></g></svg>